# xmcd
#
# Track frame offsets:
#	150
#	10091
#	24690
#	39092
#	66730
#	86162
#	104206
#	123155
#	135416
#	158792
#	180480
#	197588
#	212667
#	239570
#	259493
#	288634
#
# Disc length: 4082 seconds
#
# Revision: 0
# Processed by: cddbd v1.5.2PL0 Copyright (c) Steve Scherf et al.
# Submitted via: EasyCDDAExtractor 12.0.6 .1
#
DISCID=ec0ff010
DTITLE=국악방송 - 어린이를 위한 창작판소리
DYEAR=1900
DGENRE=
TTITLE0=주제가
TTITLE1=퇴물 정승이 심심한 까닭
TTITLE2=이야기꾼들이 모여 줄을 선 대목
TTITLE3=이야기꾼의 쥐꼬리 이야기 대목
TTITLE4=사또가 절에 시주한 까닭
TTITLE5=쉰 냥짜리 달 잔치
TTITLE6=천 냥짜리 옹근 달
TTITLE7=방귀쟁이 며느리의 시댁살이
TTITLE8=석 달 만에 방귀 뀌는 며느리
TTITLE9=시댁에서 쫓겨나는 며느리
TTITLE10=옹기장수 가난타령
TTITLE11=옹기장수 고을 원님께 한탄하는 대목
TTITLE12=원님의 송사 풀이
TTITLE13=돈타령
TTITLE14=도깨비에게 돈 석 냥 빌린 덕에 부자 되는 대목
TTITLE15=도깨비 쫓아내고 영감 돈벼락 맞는 대목
EXTD=
EXTT0=
EXTT1=
EXTT2=
EXTT3=
EXTT4=
EXTT5=
EXTT6=
EXTT7=
EXTT8=
EXTT9=
EXTT10=
EXTT11=
EXTT12=
EXTT13=
EXTT14=
EXTT15=
PLAYORDER=
